<svg version="1.2" xmlns="http://www.w3.org/2000/svg" viewBox="0 0 1280 720" width="1280" height="720"><defs><filter x="-50%" y="-50%" width="200%" height="200%" id="f1" ><feDropShadow dx="0" dy="0" stdDeviation="83.33333333333334" flood-color="#000000" flood-opacity="0"/></filter></defs><style>.a{fill:#fff}.b{filter:url(#f1);fill:#e8e8e8}.c{fill:#fcbcbc}.d{fill:#eb2121}</style><path class="a" d="m0 0h1280v720h-1280z"/><path class="b" d="m950-23l-119 408-102-25-748 345-197-284 111-547c0 0 144-113.4 273-113 129 0.4 782 216 782 216z"/><path class="c" d="m1055-116l372 39 90 197-139 711-197-54-454-416 187-333z"/><path class="c" d="m1199-210"/><path class="d" d="m1080-164l372 39 90 197-139 711-197-54-454-416 187-333z"/></svg>